Patient4_TMGait_0pt4_02_left_22_GRF.mot
version=1
nRows=78
nColumns=19
inDegrees=no
endheader
time	F1x	F1y	F1z	M1x	M1y	M1z	F2x	F2y	F2z	M2x	M2y	M2z	EC1x	EC1y	EC1z	EC2x	EC2y	EC2z
29.48	-2.1151	0.65977	-3.139	0.6891	2.3022	3.2114	-24.3083	734.1385	-64.9009	269.217	83.2515	853.4033	-0.0592	0.0182	-0.0073	-0.0462	0.0165	0.9585
29.4934	-1.603	1.0042	-2.1238	0.28774	1.4752	2.9239	-22.5958	733.6048	-62.3027	268.9947	79.7723	850.7445	-0.0592	0.0182	-0.0073	-0.0462	0.0165	0.9585
29.5067	-1.1047	1.305	-1.2307	-0.063066	0.76309	2.6692	-20.5313	735.1845	-59.8747	269.6087	76.2821	849.8361	-0.0592	0.0182	-0.0073	-0.0462	0.0165	0.9585
29.5201	-0.6737	1.5459	-0.53211	-0.3397	0.22134	2.4633	-18.1767	739.3392	-57.7664	271.2411	72.9598	851.2737	-0.0592	0.0182	-0.0073	-0.0462	0.0165	0.9585
29.5334	-0.36404	1.736	-0.033976	-0.54099	-0.15759	2.3383	-15.5827	746.0251	-56.0294	273.8721	69.8836	855.1153	-0.0592	0.0182	-0.0073	-0.0462	0.0165	0.9585
29.5468	-0.16243	1.863	0.28359	-0.67202	-0.39258	2.2527	-12.8145	754.6041	-54.6577	277.2498	67.077	860.7606	-0.0592	0.0182	-0.0073	-0.0462	0.0165	0.9585
29.5601	-0.068472	1.9225	0.47273	-0.74256	-0.53699	2.1785	-9.9426	763.95	-53.6087	280.9321	64.5281	867.0705	-0.0592	0.0182	-0.0073	-0.0462	0.0165	0.9585
29.5735	-0.061529	1.8898	0.56787	-0.75566	-0.62359	2.0583	-7.0302	772.6545	-52.8154	284.3699	62.1966	872.5847	-0.0592	0.0182	-0.0073	-0.0462	0.0165	0.9585
29.5869	-0.11862	1.7108	0.61503	-0.701	-0.689	1.8003	-4.1704	779.3016	-52.201	287.0151	60.0382	875.838	-0.0592	0.0182	-0.0073	-0.0462	0.0165	0.9585
29.6002	-0.23144	1.3377	0.62947	-0.56654	-0.74608	1.3409	-1.441	782.7789	-51.6944	288.4359	58.0137	875.6962	-0.0592	0.0182	-0.0073	-0.0462	0.0165	0.9585
29.6136	-0.36304	0.68945	0.63478	-0.32995	-0.80783	0.55729	1.0893	782.5202	-51.2421	288.4058	56.1071	871.6269	-0.0592	0.0182	-0.0073	-0.0462	0.0165	0.9585
29.6269	-0.50587	-0.28669	0.6333	0.025553	-0.87542	-0.61791	3.3604	778.5534	-50.8341	286.9227	54.3425	863.7371	-0.0592	0.0182	-0.0073	-0.0462	0.0165	0.9585
29.6403	-0.62132	-1.6166	0.62948	0.50764	-0.93452	-2.2377	5.3416	771.4699	-50.5146	284.1954	52.791	852.7225	-0.0592	0.0182	-0.0073	-0.0462	0.0165	0.9585
29.6536	-0.65303	-3.2566	0.61341	1.0997	-0.94879	-4.2646	7.0254	762.3389	-50.3517	280.614	51.5409	839.7756	-0.0592	0.0182	-0.0073	-0.0462	0.0165	0.9585
29.667	-0.53486	-5.045	0.55733	1.7442	-0.86013	-6.4975	8.4587	752.4642	-50.4252	276.6659	50.6713	826.3058	-0.0592	0.0182	-0.0073	-0.0462	0.0165	0.9585
29.6804	-0.16757	-6.6408	0.4357	2.3196	-0.59772	-8.5157	9.7254	743.1552	-50.8018	272.8461	50.2327	813.7047	-0.0592	0.0182	-0.0073	-0.0462	0.0165	0.9585
29.6937	0.54437	-7.453	0.20538	2.6147	-0.071519	-9.5678	10.9698	735.4845	-51.5276	269.566	50.2272	803.078	-0.0592	0.0182	-0.0073	-0.0462	0.0165	0.9585
29.7071	1.7204	-6.6174	-0.16701	2.3185	0.80645	-8.5655	12.3405	730.1142	-52.6096	267.0859	50.6096	795.0837	-0.0592	0.0182	-0.0073	-0.0462	0.0165	0.9585
29.7204	3.4422	-2.9275	-0.71856	0.99955	2.1114	-3.9806	13.9344	727.177	-54.0113	265.4677	51.3014	789.8268	-0.0592	0.0182	-0.0073	-0.0462	0.0165	0.9585
29.7338	5.7313	5.0872	-1.4518	-1.8719	3.8595	6.0513	15.779	726.1865	-55.6527	264.5414	52.2024	786.7721	-0.0592	0.0182	-0.0073	-0.0462	0.0165	0.9585
29.7471	8.4918	19.035	-2.3427	-6.8727	5.9758	23.5681	17.8004	726.0646	-57.4068	263.9173	53.1982	784.789	-0.0592	0.0182	-0.0073	-0.0462	0.0165	0.9585
29.7605	11.3992	40.3729	-3.2977	-14.5181	8.2158	50.4238	19.853	725.236	-59.0842	263.0268	54.134	782.2466	-0.0592	0.0182	-0.0073	-0.0462	0.0165	0.9585
29.7739	13.8473	69.8609	-4.1384	-25.0694	10.1209	87.5826	21.7212	721.8458	-60.4332	261.204	54.8121	777.2324	-0.0592	0.0182	-0.0073	-0.0462	0.0165	0.9585
29.7872	14.8188	106.8007	-4.5592	-38.2625	10.9292	134.1921	23.1996	714.0349	-61.1754	257.7882	55.0074	767.8226	-0.0592	0.0182	-0.0073	-0.0462	0.0165	0.9585
29.8006	13.1369	148.254	-4.1257	-53.0275	9.6724	186.57	24.115	700.2455	-61.0469	252.2382	54.5071	752.3969	-0.0592	0.0182	-0.0073	-0.0462	0.0165	0.9585
29.8139	8.5199	188.9803	-2.2891	-67.4659	5.594	238.1261	24.36	679.607	-59.8785	244.2677	53.1775	730.0347	-0.0592	0.0182	-0.0073	-0.0462	0.0165	0.9585
29.8273	2.7086	223.9104	1.1755	-79.7498	-0.88779	282.3728	24.0044	652.3185	-57.6802	233.976	51.0179	700.8804	-0.0592	0.0182	-0.0073	-0.0462	0.0165	0.9585
29.8406	-2.6133	250.8398	5.5823	-89.1356	-8.3101	316.253	23.2131	619.7104	-54.6872	221.8562	48.2252	666.2351	-0.0592	0.0182	-0.0073	-0.0462	0.0165	0.9585
29.854	-6.8027	271.3049	10.3054	-96.2068	-15.6335	341.5517	22.2424	583.6839	-51.2851	208.5984	45.1101	627.9708	-0.0592	0.0182	-0.0073	-0.0462	0.0165	0.9585
29.8674	-9.7888	288.7354	14.7521	-102.2303	-22.1224	362.5619	21.3482	546.1192	-47.7814	194.8817	41.8951	587.9658	-0.0592	0.0182	-0.0073	-0.0462	0.0165	0.9585
29.8807	-11.9035	306.5883	18.733	-108.4606	-27.6425	383.713	20.702	508.3577	-44.2973	181.1901	38.6389	547.5865	-0.0592	0.0182	-0.0073	-0.0462	0.0165	0.9585
29.8941	-13.4465	327.3712	22.1423	-115.7983	-32.1954	408.0776	20.3658	471.0165	-40.7714	167.7452	35.2575	507.4819	-0.0592	0.0182	-0.0073	-0.0462	0.0165	0.9585
29.9074	-14.6534	352.4739	25.1702	-124.7077	-36.086	437.3615	20.2643	434.0388	-37.0949	154.5173	31.6584	467.6352	-0.0592	0.0182	-0.0073	-0.0462	0.0165	0.9585
29.9208	-15.5595	382.4505	28.0231	-135.3385	-39.6036	472.2349	20.2369	396.863	-33.2087	141.2887	27.8232	427.4886	-0.0592	0.0182	-0.0073	-0.0462	0.0165	0.9585
29.9341	-16.1352	417.3038	31.0397	-147.6192	-43.1437	512.7007	20.0087	358.7633	-29.1673	127.7709	23.8781	386.3301	-0.0592	0.0182	-0.0073	-0.0462	0.0165	0.9585
29.9475	-16.3953	456.366	34.502	-161.2412	-47.0623	557.9509	19.3019	319.1393	-25.0813	113.7204	20.0141	343.5631	-0.0592	0.0182	-0.0073	-0.0462	0.0165	0.9585
29.9609	-16.4385	498.3812	38.7565	-175.7029	-51.8008	606.4791	17.8584	277.8476	-21.0901	99.0637	16.4512	299.0772	-0.0592	0.0182	-0.0073	-0.0462	0.0165	0.9585
29.9742	-16.4845	542.1603	43.9172	-190.5462	-57.5809	656.9082	15.5373	235.4274	-17.3115	83.9812	13.3596	253.4732	-0.0592	0.0182	-0.0073	-0.0462	0.0165	0.9585
29.9876	-16.6601	586.8187	49.8685	-205.4549	-64.3181	708.2107	12.3838	193.0971	-13.8474	68.9077	10.8392	208.0472	-0.0592	0.0182	-0.0073	-0.0462	0.0165	0.9585
30.0009	-17.0527	631.5748	56.2299	-220.1792	-71.6059	759.5091	8.6527	152.5628	-10.773	54.4545	8.8919	164.6035	-0.0592	0.0182	-0.0073	-0.0462	0.0165	0.9585
30.0143	-17.6739	675.3408	62.5924	-234.3793	-78.9723	809.5599	4.8253	115.5588	-8.1424	41.2454	7.4224	124.9378	-0.0592	0.0182	-0.0073	-0.0462	0.0165	0.9585
30.0276	-18.5234	716.5671	68.5775	-247.5603	-85.9781	856.5795	1.364	83.4394	-5.9659	29.7684	6.2872	90.4704	-0.0592	0.0182	-0.0073	-0.0462	0.0165	0.9585
30.041	-19.6029	753.3872	73.9055	-259.1214	-92.2913	898.4125	-1.3582	56.8941	-4.2129	20.2794	5.3303	61.9259	-0.0592	0.0182	-0.0073	-0.0462	0.0165	0.9585
30.0544	-20.8209	784.03	78.3408	-268.5015	-97.6053	932.9668	-3.1501	36.0084	-2.824	12.8139	4.4317	39.4083	-0.0592	0.0182	-0.0073	-0.0462	0.0165	0.9585
30.0677	-22.0189	807.1594	81.7055	-275.2935	-101.6562	958.6571	-4.0141	20.4155	-1.7479	7.2429	3.5418	22.5491	-0.0592	0.0182	-0.0073	-0.0462	0.0165	0.9585
30.0811	-22.9898	821.9841	83.8749	-279.2832	-104.2314	974.5166	-4.0611	9.4815	-0.94385	3.3416	2.6601	10.6797	-0.0592	0.0182	-0.0073	-0.0462	0.0165	0.9585
30.0944	-23.5618	828.3359	84.845	-280.4628	-105.2619	980.3043	-3.5605	2.4846	-0.3919	0.84692	1.8589	3.0525	-0.0592	0.0182	-0.0073	-0.0462	0.0165	0.9585
30.1078	-23.5918	826.6573	84.6983	-279.0224	-104.7949	976.501	-2.8188	-1.4281	-0.052484	-0.5459	1.2043	-1.2422	-0.0592	0.0182	-0.0073	-0.0462	0.0165	0.9585
30.1211	-22.9835	817.9842	83.5926	-275.3417	-102.9836	964.2902	-2.0631	-3.1406	0.11955	-1.1523	0.72452	-3.1435	-0.0592	0.0182	-0.0073	-0.0462	0.0165	0.9585
30.1345	-21.7021	803.9142	81.7215	-269.9784	-100.0489	945.5061	-1.4013	-3.4249	0.17956	-1.2487	0.40134	-3.4852	-0.0592	0.0182	-0.0073	-0.0462	0.0165	0.9585
30.1479	-19.7849	786.4289	79.3101	-263.6102	-96.2687	922.4321	-0.8752	-2.8975	0.16359	-1.0549	0.21256	-2.9394	-0.0592	0.0182	-0.0073	-0.0462	0.0165	0.9585
30.1612	-17.3323	767.6539	76.602	-256.9529	-91.9615	897.5515	-0.50921	-2.0027	0.11157	-0.72839	0.12343	-1.9815	-0.0592	0.0182	-0.0073	-0.0462	0.0165	0.9585
30.1746	-14.4724	749.6278	73.8256	-250.6844	-87.4338	873.2543	-0.27134	-1.0294	0.044236	-0.37168	0.10048	-0.92362	-0.0592	0.0182	-0.0073	-0.0462	0.0165	0.9585
30.1879	-11.3555	734.1168	71.1841	-245.3846	-82.9649	851.6226	-0.14356	-0.12927	-0.018581	-0.041068	0.11509	0.079164	-0.0592	0.0182	-0.0073	-0.0462	0.0165	0.9585
30.2013	-8.136	722.4431	68.8193	-241.4832	-78.7635	834.227	-0.094925	0.61067	-0.069496	0.23251	0.14822	0.92305	-0.0592	0.0182	-0.0073	-0.0462	0.0165	0.9585
30.2146	-4.9467	715.3705	66.8308	-239.2186	-74.9834	821.9907	-0.10668	1.1668	-0.10604	0.44087	0.19004	1.5773	-0.0592	0.0182	-0.0073	-0.0462	0.0165	0.9585
30.228	-1.8772	713.0752	65.2466	-238.631	-71.6862	815.1417	-0.15935	1.5522	-0.13517	0.58742	0.24049	2.0469	-0.0592	0.0182	-0.0073	-0.0462	0.0165	0.9585
30.2414	1.0112	715.1886	64.0695	-239.5736	-68.8887	813.2702	-0.2357	1.7725	-0.16139	0.67323	0.30004	2.3177	-0.0592	0.0182	-0.0073	-0.0462	0.0165	0.9585
30.2547	3.707	720.9249	63.2576	-241.7584	-66.5496	815.4827	-0.3466	1.832	-0.19001	0.69815	0.37792	2.3855	-0.0592	0.0182	-0.0073	-0.0462	0.0165	0.9585
30.2681	6.2393	729.2415	62.7794	-244.8114	-64.6228	820.5951	-0.47451	1.7112	-0.22785	0.65396	0.4775	2.2142	-0.0592	0.0182	-0.0073	-0.0462	0.0165	0.9585
30.2814	8.6349	739.0201	62.5755	-248.3369	-63.0381	827.3436	-0.62996	1.3734	-0.27798	0.52521	0.6049	1.7633	-0.0592	0.0182	-0.0073	-0.0462	0.0165	0.9585
30.2948	10.9152	749.1919	62.6041	-251.9619	-61.7419	834.5202	-0.81382	0.74256	-0.34635	0.28643	0.76554	0.94772	-0.0592	0.0182	-0.0073	-0.0462	0.0165	0.9585
30.3081	13.1351	758.8404	62.7949	-255.3717	-60.645	841.0942	-1.0028	-0.23806	-0.43224	-0.083478	0.94663	-0.29642	-0.0592	0.0182	-0.0073	-0.0462	0.0165	0.9585
30.3215	15.3879	767.2199	63.0789	-258.3137	-59.6478	846.2161	-1.1585	-1.6032	-0.52786	-0.5985	1.1188	-2.0142	-0.0592	0.0182	-0.0073	-0.0462	0.0165	0.9585
30.3349	17.7742	773.7458	63.3769	-260.5961	-58.6411	849.2163	-1.2085	-3.356	-0.60659	-1.2586	1.2208	-4.22	-0.0592	0.0182	-0.0073	-0.0462	0.0165	0.9585
30.3482	20.384	777.9482	63.6318	-262.0657	-57.5429	849.5664	-1.0561	-5.3747	-0.63316	-2.0184	1.1707	-6.7616	-0.0592	0.0182	-0.0073	-0.0462	0.0165	0.9585
30.3616	23.2825	779.4194	63.819	-262.5833	-56.3176	846.8412	-0.55025	-7.3782	-0.55739	-2.7688	0.85133	-9.2913	-0.0592	0.0182	-0.0073	-0.0462	0.0165	0.9585
30.3749	26.4842	777.8429	63.9415	-262.0333	-54.976	840.769	0.46442	-8.8433	-0.31389	-3.309	0.12525	-11.1447	-0.0592	0.0182	-0.0073	-0.0462	0.0165	0.9585
30.3883	29.9694	773.0674	64.0353	-260.3508	-53.5703	831.2836	2.1618	-8.9307	0.17654	-3.318	-1.1596	-11.2614	-0.0592	0.0182	-0.0073	-0.0462	0.0165	0.9585
30.4016	33.6765	765.199	64.1479	-257.5519	-52.1765	818.621	4.6865	-6.4307	0.98997	-2.3359	-3.1364	-8.1264	-0.0592	0.0182	-0.0073	-0.0462	0.0165	0.9585
30.415	37.5022	754.5438	64.3342	-253.7165	-50.8878	803.2481	8.0712	0.22177	2.1848	0.23163	-5.8739	0.22625	-0.0592	0.0182	-0.0073	-0.0462	0.0165	0.9585
30.4284	41.2917	741.447	64.5997	-248.94	-49.7625	785.6794	12.1721	12.8425	3.7703	5.0729	-9.3107	16.069	-0.0592	0.0182	-0.0073	-0.0462	0.0165	0.9585
30.4417	44.8202	726.1054	64.8638	-243.2768	-48.7908	766.266	16.5235	33.2562	5.659	12.873	-13.1475	41.6985	-0.0592	0.0182	-0.0073	-0.0462	0.0165	0.9585
30.4551	47.8158	708.3668	64.9478	-236.6789	-47.878	744.9761	20.204	62.7941	7.609	24.1272	-16.7272	78.7825	-0.0592	0.0182	-0.0073	-0.0462	0.0165	0.9585
30.4684	49.9465	687.6059	64.5918	-228.9561	-46.8679	721.2714	21.6864	101.5689	9.1493	38.8628	-18.8915	127.4618	-0.0592	0.0182	-0.0073	-0.0462	0.0165	0.9585
30.4818	50.8819	662.8209	63.5032	-219.8134	-45.5747	694.1763	19.2885	147.9037	9.5116	56.3985	-18.0767	185.6764	-0.0592	0.0182	-0.0073	-0.0462	0.0165	0.9585
30.4951	50.3556	633.0462	61.4124	-208.9873	-43.8139	662.6987	12.5275	198.3442	7.8831	75.3502	-13.1566	249.1717	-0.0592	0.0182	-0.0073	-0.0462	0.0165	0.9585
30.5085	48.2722	597.8005	58.1751	-196.3893	-41.4691	626.2664	2.8346	248.6501	4.1444	94.0791	-4.6037	312.549	-0.0592	0.0182	-0.0073	-0.0462	0.0165	0.9585
